<svg width="128" height="128" viewBox="0 0 128 128" fill="none" xmlns="http://www.w3.org/2000/svg">
  <path d="M64 10L102 26V58C102 84.4 86.2 106.7 64 118C41.8 106.7 26 84.4 26 58V26L64 10Z" fill="#DA6B2C"/>
  <path d="M64 22L91 33.6V57.1C91 76.9 79.5 94.9 64 103.4C48.5 94.9 37 76.9 37 57.1V33.6L64 22Z" fill="#101828"/>
  <path d="M52 39C64.6 39 74.5 47.6 76.9 59.2C71.5 52.8 63.9 49.5 54.5 49.5C52.3 49.5 50 49.7 47.7 50.2C50.4 43.4 57 39 64.9 39H52Z" fill="white"/>
  <path d="M48 59.8C55.9 56.9 64.1 56.8 72.4 59.4C68.9 68.8 61.8 76.2 52.4 80.5C54.4 73.6 53 66.1 48 59.8Z" fill="#4FD1C5"/>
  <path d="M70.5 46.4C77.1 49.9 81 56.7 81 64.4C81 72.8 76.3 80.3 68.8 83.9C71.1 76.4 70.8 68.7 67.8 60.9C66.4 57.3 64.4 53.8 61.9 50.7C64.8 48.2 67.7 46.8 70.5 46.4Z" fill="#F6AD55"/>
</svg>
